# xmcd
#
# Track frame offsets:
#	150
#	17991
#	43712
#	62245
#	73299
#	107221
#	119713
#	138040
#	149525
#	162905
#	180479
#	202785
#
# Disc length: 2936 seconds
#
# Revision: 1
# Processed by: cddbd v1.5.2PL0 Copyright (c) Steve Scherf et al.
# Submitted via: audiograbber 1.83.01
#
DISCID=b50b760c
DTITLE=Stripey Howling Hancock - Street Guitar
DYEAR=2001
DGENRE=Blues
TTITLE0=Happy Meeting
TTITLE1=Cheating Heart/Story of Love
TTITLE2=Highstreet Blues done in a 12 bar styly
TTITLE3=The Unquiet Grave
TTITLE4=Stripey's Hop
TTITLE5=Teddy O'Niel
TTITLE6=The Dave Oddy Guitar Hospital Rag
TTITLE7=Catherine Street Parade
TTITLE8=Boston T Party Stomp
TTITLE9=Moved On In Sidmouth
TTITLE10=Tishamingo Blues (Instru...mental)
TTITLE11=Zeilona Gora
EXTD=
EXTT0=
EXTT1=
EXTT2=
EXTT3=
EXTT4=
EXTT5=
EXTT6=
EXTT7=
EXTT8=
EXTT9=
EXTT10=
EXTT11=
PLAYORDER=
